<?xml version="1.0" encoding="utf-8"?>
<!-- Generator: Adobe Illustrator 27.3.0, SVG Export Plug-In . SVG Version: 6.00 Build 0)  -->
<svg version="1.1" xmlns="http://www.w3.org/2000/svg" xmlns:xlink="http://www.w3.org/1999/xlink" x="0px" y="0px"
	 viewBox="0 0 132.3 125" enable-background="new 0 0 132.3 125" xml:space="preserve">
<g id="_x32_._kakaotalk_thumbnail">
</g>
<g id="_x31_._Main_Page">
	<g id="Church_logo_00000080167738967238798190000002310981878884842668_">
		<polygon fill="#00569B" points="106.5,8.7 111.5,8.7 111.5,5.3 106.5,5.3 106.5,0 103.1,0 103.1,5.3 98.1,5.3 98.1,8.7 103.1,8.7 
			103.1,16.5 92.5,53.1 67.5,38.2 67.5,33.4 71.5,33.4 71.5,30.7 67.5,30.7 67.5,26.4 64.8,26.4 64.8,30.7 60.8,30.7 60.8,33.4 
			64.8,33.4 64.8,38 39.8,52.9 29.6,17.1 29.6,8.7 34.6,8.7 34.6,5.3 29.6,5.3 29.6,0 26.2,0 26.2,5.3 21.2,5.3 21.2,8.7 26.2,8.7 
			26.2,16.8 14.8,58.1 14.7,58.4 18.4,58.4 27.9,24.2 37.6,58.4 37.7,58.7 66,41.8 94.6,58.9 104.6,24.4 113.8,58.2 113.8,58.4 
			117.6,58.4 106.5,17.7 		"/>
		<rect x="0" y="66.6" fill="#00569B" width="132.3" height="1.2"/>
		<rect x="0" y="123.8" fill="#00569B" width="132.3" height="1.2"/>
		<g>
			<path fill="#00569B" d="M13.5,81.4c-0.1,1.7-0.5,2.9-1.4,3.8c-0.9,0.9-2.1,1.3-3.7,1.3c-1.7,0-2.9-0.5-3.8-1.6
				c-0.9-1.1-1.3-2.6-1.3-4.7v-2.5c0-2,0.5-3.6,1.4-4.7c0.9-1.1,2.2-1.6,3.8-1.6c1.6,0,2.8,0.4,3.6,1.3c0.8,0.9,1.3,2.2,1.4,3.8h-3
				c0-1-0.2-1.7-0.5-2.1c-0.3-0.4-0.8-0.6-1.6-0.6c-0.8,0-1.4,0.3-1.7,0.8c-0.3,0.6-0.5,1.5-0.5,2.7v2.8c0,1.5,0.2,2.5,0.5,3
				C7.1,83.8,7.7,84,8.5,84c0.8,0,1.3-0.2,1.6-0.6c0.3-0.4,0.5-1.1,0.5-2.1H13.5z"/>
			<path fill="#00569B" d="M25.9,86.3H23V80h-4.4v6.3h-3V71.7h3v5.9H23v-5.9h2.9V86.3z"/>
			<path fill="#00569B" d="M38.7,80.3c0,2-0.5,3.5-1.4,4.6c-0.9,1.1-2.2,1.6-3.9,1.6c-1.6,0-2.9-0.5-3.9-1.6
				c-0.9-1.1-1.4-2.6-1.4-4.5v-2.5c0-2,0.5-3.6,1.4-4.7c0.9-1.1,2.2-1.7,3.9-1.7c1.6,0,2.9,0.6,3.9,1.7c0.9,1.1,1.4,2.7,1.4,4.7
				V80.3z M35.8,77.8c0-1.3-0.2-2.3-0.6-2.9c-0.4-0.6-1-1-1.8-1c-0.8,0-1.4,0.3-1.7,0.9c-0.4,0.6-0.6,1.6-0.6,2.8v2.6
				c0,1.3,0.2,2.2,0.6,2.8c0.4,0.6,1,0.9,1.8,0.9c0.8,0,1.3-0.3,1.7-0.9c0.4-0.6,0.6-1.5,0.6-2.8V77.8z"/>
			<path fill="#00569B" d="M51,80.3c0,2-0.5,3.5-1.4,4.6c-0.9,1.1-2.2,1.6-3.9,1.6c-1.6,0-2.9-0.5-3.9-1.6c-0.9-1.1-1.4-2.6-1.4-4.5
				v-2.5c0-2,0.5-3.6,1.4-4.7c0.9-1.1,2.2-1.7,3.9-1.7c1.6,0,2.9,0.6,3.9,1.7c0.9,1.1,1.4,2.7,1.4,4.7V80.3z M48,77.8
				c0-1.3-0.2-2.3-0.6-2.9c-0.4-0.6-1-1-1.8-1c-0.8,0-1.4,0.3-1.7,0.9c-0.4,0.6-0.6,1.6-0.6,2.8v2.6c0,1.3,0.2,2.2,0.6,2.8
				c0.4,0.6,1,0.9,1.8,0.9c0.8,0,1.3-0.3,1.7-0.9c0.4-0.6,0.6-1.5,0.6-2.8V77.8z"/>
			<path fill="#00569B" d="M63.6,86.3h-3l-4.3-9.6v9.6h-3V71.7h3l4.3,9.6v-9.6h2.9V86.3z"/>
			<path fill="#00569B" d="M76.3,84.6c-0.6,0.6-1.3,1.1-2.1,1.4c-0.8,0.3-1.7,0.5-2.7,0.5c-1.7,0-3-0.5-3.9-1.6
				c-0.9-1-1.4-2.6-1.4-4.6v-2.6c0-2,0.4-3.6,1.3-4.7c0.9-1.1,2.2-1.6,3.9-1.6c1.6,0,2.8,0.4,3.6,1.2c0.8,0.8,1.3,2,1.4,3.7h-2.9
				c-0.1-0.9-0.3-1.6-0.6-1.9c-0.3-0.3-0.8-0.5-1.4-0.5c-0.8,0-1.4,0.3-1.7,0.9c-0.4,0.6-0.6,1.5-0.6,2.8v2.7c0,1.3,0.2,2.3,0.6,2.9
				c0.4,0.6,1.1,0.9,2,0.9c0.6,0,1.1-0.1,1.4-0.4l0.3-0.2v-2.7h-2.1v-2.2h5V84.6z"/>
			<path fill="#00569B" d="M93.5,86.3h-2.9V80h-4.4v6.3h-3V71.7h3v5.9h4.4v-5.9h2.9V86.3z"/>
			<path fill="#00569B" d="M100.3,78.2l2.2-6.6h3.2l-3.9,9.3v5.3h-3V81l-3.9-9.3h3.2L100.3,78.2z"/>
			<path fill="#00569B" d="M116.1,71.7v10.1c0,1.5-0.4,2.7-1.3,3.5c-0.8,0.8-2,1.2-3.6,1.2c-1.6,0-2.8-0.4-3.6-1.2
				c-0.8-0.8-1.2-2-1.2-3.6V71.7h3v10.1c0,0.8,0.1,1.4,0.4,1.8c0.3,0.4,0.8,0.5,1.5,0.5c0.7,0,1.2-0.2,1.4-0.5
				c0.3-0.4,0.4-0.9,0.4-1.7V71.7H116.1z"/>
			<path fill="#00569B" d="M128.9,86.3h-3l-4.3-9.6v9.6h-3V71.7h3l4.3,9.6v-9.6h2.9V86.3z"/>
		</g>
		<g>
			<path fill="#00569B" d="M40.6,114.4c-0.1,1.7-0.5,2.9-1.4,3.8c-0.9,0.9-2.1,1.3-3.7,1.3c-1.7,0-2.9-0.5-3.8-1.6
				c-0.9-1.1-1.3-2.6-1.3-4.7v-2.5c0-2,0.5-3.6,1.4-4.7c0.9-1.1,2.2-1.6,3.8-1.6c1.6,0,2.8,0.4,3.6,1.3c0.8,0.9,1.3,2.2,1.4,3.8h-3
				c0-1-0.2-1.7-0.5-2.1c-0.3-0.4-0.8-0.6-1.6-0.6c-0.8,0-1.4,0.3-1.7,0.8c-0.3,0.6-0.5,1.5-0.5,2.7v2.8c0,1.5,0.2,2.5,0.5,3
				c0.3,0.5,0.9,0.8,1.7,0.8c0.8,0,1.3-0.2,1.6-0.6c0.3-0.4,0.5-1.1,0.5-2.1H40.6z"/>
			<path fill="#00569B" d="M53,119.3h-2.9V113h-4.4v6.3h-3v-14.6h3v5.9h4.4v-5.9H53V119.3z"/>
			<path fill="#00569B" d="M65.2,104.6v10.1c0,1.5-0.4,2.7-1.3,3.5c-0.8,0.8-2,1.2-3.6,1.2c-1.6,0-2.8-0.4-3.6-1.2
				c-0.8-0.8-1.2-2-1.2-3.6v-10.1h3v10.1c0,0.8,0.1,1.4,0.4,1.8c0.3,0.4,0.8,0.5,1.5,0.5c0.7,0,1.2-0.2,1.4-0.5
				c0.3-0.4,0.4-0.9,0.4-1.7v-10.1H65.2z"/>
			<path fill="#00569B" d="M72.2,113.9h-1.5v5.4h-3v-14.6h4.7c1.5,0,2.6,0.4,3.4,1.2c0.8,0.8,1.2,1.9,1.2,3.3c0,1.9-0.7,3.3-2.1,4.1
				l2.6,6v0.1h-3.2L72.2,113.9z M70.8,111.5h1.7c0.6,0,1-0.2,1.3-0.6c0.3-0.4,0.4-0.9,0.4-1.6c0-1.5-0.6-2.2-1.7-2.2h-1.7V111.5z"/>
			<path fill="#00569B" d="M89.4,114.4c-0.1,1.7-0.5,2.9-1.4,3.8c-0.9,0.9-2.1,1.3-3.7,1.3c-1.7,0-2.9-0.5-3.8-1.6
				c-0.9-1.1-1.3-2.6-1.3-4.7v-2.5c0-2,0.5-3.6,1.4-4.7c0.9-1.1,2.2-1.6,3.8-1.6c1.6,0,2.8,0.4,3.6,1.3c0.8,0.9,1.3,2.2,1.4,3.8h-3
				c0-1-0.2-1.7-0.5-2.1c-0.3-0.4-0.8-0.6-1.6-0.6c-0.8,0-1.4,0.3-1.7,0.8c-0.3,0.6-0.5,1.5-0.5,2.7v2.8c0,1.5,0.2,2.5,0.5,3
				c0.3,0.5,0.9,0.8,1.7,0.8c0.8,0,1.3-0.2,1.6-0.6c0.3-0.4,0.5-1.1,0.5-2.1H89.4z"/>
			<path fill="#00569B" d="M101.8,119.3h-2.9V113h-4.4v6.3h-3v-14.6h3v5.9h4.4v-5.9h2.9V119.3z"/>
		</g>
		<g>
			<path fill="#00569B" d="M51.6,91c1,0.6,1.5,1.3,1.5,2.2c0,0.7-0.4,1.4-1.1,2.2c-0.4,0.5-0.9,0.8-1.5,1.2
				c-0.6,0.3-1.2,0.6-1.8,0.7c-1,0.2-1.9,0.4-2.7,0.4c-0.2,0-0.3,0-0.5,0c-0.7,1-1.4,1.9-2.2,2.6c-1.1,1-2.3,1.5-3.6,1.5
				c-1.3,0-2-0.3-2.3-1c-0.1-0.2-0.1-0.4-0.1-0.6c0-0.2,0.1-0.5,0.3-0.7c0.3-0.4,0.8-0.6,1.5-0.6c0.4,0,0.8,0.1,1.3,0.2
				c0.2,0.1,0.2,0.1,0.2,0.2c0,0-0.2,0-0.4-0.1c-0.2-0.1-0.5-0.1-0.8-0.1c-0.3,0-0.6,0.1-0.8,0.4c-0.2,0.2-0.4,0.5-0.4,0.8
				c0,0.1,0,0.2,0.1,0.3c0.2,0.5,0.6,0.8,1.3,0.8c1.1,0,2.1-0.5,3.2-1.5c0.7-0.7,1.6-2,2.5-3.9c0.4-0.7,0.8-1.5,1.3-2.4
				c0.5-0.9,1.1-1.6,1.6-2.2c0.1-0.1,0.2-0.2,0.3-0.3c0.2-0.2,0.4-0.4,0.5-0.6c-0.7-0.1-1.4-0.1-2.2-0.1c-0.8,0-1.5,0.1-2.2,0.2
				c-0.7,0.1-1.3,0.3-1.8,0.5c-0.5,0.2-1.1,0.4-1.6,0.7c-0.5,0.3-1,0.6-1.4,1.1c-0.5,0.6-0.7,1.1-0.7,1.7c0,0.4,0.1,0.7,0.4,1
				c0.3,0.3,0.6,0.5,1.1,0.5c0.4,0,0.9-0.2,1.3-0.5c0.4-0.3,0.7-0.8,0.9-1.2c0-0.1,0-0.1,0.1-0.1c0,0,0.1,0,0.1,0c0,0,0,0.1,0,0.1
				c0,0.6-0.3,1.1-0.7,1.5c-0.5,0.4-1,0.5-1.6,0.5c-0.7,0-1.2-0.2-1.6-0.6c-0.4-0.4-0.6-0.9-0.6-1.5c0-0.6,0.2-1.1,0.5-1.5
				c0.3-0.4,0.7-0.8,1.1-1.1c0.4-0.3,0.9-0.5,1.4-0.8c0.9-0.4,1.9-0.6,2.9-0.8c1-0.2,2-0.2,2.8-0.2c0.9,0,1.7,0.1,2.4,0.2
				c0.3-0.3,0.7-0.5,0.9-0.6c0.3-0.1,0.4-0.1,0.4-0.1c0,0,0.1,0,0.1,0c0.1,0,0.1,0,0,0.1c0,0.1-0.1,0.2-0.3,0.3
				c-0.2,0.1-0.4,0.3-0.5,0.4C50.5,90.4,51.1,90.7,51.6,91z M45.8,97.3c0.7,0,1.5-0.1,2.3-0.4c0.8-0.2,1.6-0.6,2.2-1.1
				c1.2-0.9,1.9-1.9,1.9-2.9c0-1.1-0.9-1.9-2.6-2.3c-0.5,0.8-1.2,1.9-2.1,3.4c-0.9,1.5-1.5,2.6-1.9,3.2
				C45.7,97.3,45.8,97.3,45.8,97.3z"/>
			<path fill="#00569B" d="M52.5,95.4c0,0.4-0.3,0.8-0.8,1.2c0.2,0,0.5,0,0.8,0c0.3,0,0.7,0,1.2-0.1c0,0,0,0.1,0,0.2
				c0,0.1-0.1,0.3-0.2,0.6c-0.1,0.2-0.2,0.5-0.3,0.6c-0.1,0.2-0.2,0.3-0.3,0.5c-0.1,0.2-0.2,0.4-0.3,0.6c-0.1,0.2-0.2,0.4-0.3,0.6
				c-0.2,0.7-0.2,1.1,0.1,1.1c0.4,0,1-0.8,1.8-2.4c0.1-0.1,0.1-0.2,0.2-0.1c0,0,0.1,0.1,0.1,0.1c0,0-0.1,0.2-0.2,0.4
				c-0.1,0.3-0.3,0.5-0.4,0.8c-0.1,0.3-0.4,0.6-0.7,0.9c-0.4,0.4-0.7,0.7-1.1,0.7c-0.4,0-0.6-0.2-0.8-0.7c0-0.1,0-0.2,0-0.4
				c0-0.2,0.1-0.4,0.2-0.7c0.1-0.3,0.3-0.6,0.5-1.1c0.2-0.4,0.4-0.7,0.4-0.7c0-0.1,0-0.1,0-0.2c0-0.3-0.4-0.5-1.2-0.5l-0.2,0.5
				c-0.6,1.6-1.2,2.7-1.8,3.2c-0.1,0.1-0.1,0.1-0.1-0.1c0,0,0-0.1,0-0.1c0.5-0.7,1-1.6,1.4-2.5c0.4-1,0.7-1.9,0.8-2.8
				c0.1-0.3,0.2-0.4,0.4-0.4c0.2,0,0.4,0.1,0.5,0.4C52.5,95.1,52.5,95.2,52.5,95.4z"/>
			<path fill="#00569B" d="M55,98.9c-0.1,0.3-0.2,0.7-0.2,1.1c0,0.3,0.1,0.5,0.2,0.6c0.1,0.2,0.3,0.2,0.5,0.2c0.9,0,1.7-0.8,2.4-2.5
				c0.1-0.2,0.1-0.2,0.2-0.2c0,0,0.1,0,0.1,0.1c0,0-0.1,0.3-0.3,0.8c-0.2,0.5-0.4,0.8-0.7,1.1c-0.5,0.7-1.1,1-1.8,1
				c-0.4,0-0.7-0.1-1-0.4c-0.3-0.3-0.4-0.6-0.4-1s0.1-0.9,0.3-1.4c0.2-0.5,0.5-0.9,0.8-1.4c0.4-0.4,0.8-0.7,1.2-0.9
				c0.2-0.1,0.4-0.1,0.6-0.1c0.2,0,0.4,0.1,0.6,0.2c0.2,0.1,0.2,0.3,0.2,0.5c0,0.6-0.3,1.1-1,1.7c-0.2,0.2-0.5,0.3-0.9,0.4
				C55.5,98.9,55.2,98.9,55,98.9z M57.4,96.6c0-0.2-0.1-0.3-0.2-0.3c-0.3,0-0.7,0.3-1.2,1c-0.3,0.4-0.6,0.9-0.9,1.4
				c0.2,0,0.4-0.1,0.7-0.2c0.3-0.1,0.6-0.3,0.8-0.5C57.1,97.6,57.4,97.1,57.4,96.6z"/>
			<path fill="#00569B" d="M59.1,100.9c0.1,0,0.2,0,0.3,0c0.4,0,0.8-0.2,1.1-0.7c0.2-0.3,0.6-0.9,1.1-1.9c0,0,0.1-0.1,0.1-0.1
				c0.1,0,0.1,0,0.1,0.1c0,0,0,0.1-0.1,0.2c0,0.1-0.1,0.2-0.1,0.3c0,0.1-0.1,0.2-0.2,0.4c-0.1,0.2-0.2,0.3-0.2,0.4
				c-0.1,0.1-0.1,0.2-0.2,0.4c-0.1,0.2-0.2,0.3-0.3,0.4l-0.3,0.3c-0.2,0.2-0.4,0.3-0.6,0.3c-0.4,0.1-0.7,0.1-1,0
				c-0.2,0.1-0.4,0.1-0.6,0.1c-0.7,0-1.1-0.3-1.2-0.8c0-0.1,0-0.3,0-0.5c0-0.2,0.1-0.4,0.2-0.5c0.1-0.2,0.2-0.3,0.4-0.3
				c0.5-0.9,0.9-1.8,1.3-2.5c0.4-0.8,0.8-1.2,1.3-1.2c0.1,0,0.3,0,0.4,0.1c0.1,0.1,0.2,0.1,0.1,0.2c0,0.1-0.1,0.1-0.2,0
				c-0.1,0-0.2-0.1-0.3-0.1c-0.1,0-0.1,0-0.2,0c-0.3,0.2-0.5,0.5-0.5,1c0,0.3,0,0.5,0.1,0.7c0.1,0.2,0.2,0.4,0.3,0.6
				c0.2,0.5,0.3,0.9,0.3,1.2c0,0.3-0.1,0.6-0.3,0.9C59.6,100.5,59.3,100.7,59.1,100.9z M57.5,100.4c0,0.1,0,0.1,0,0.2
				c0.1,0.3,0.3,0.4,0.5,0.4c0.1,0,0.2,0,0.3-0.1c-0.4-0.2-0.6-0.6-0.6-1.1C57.6,100,57.5,100.2,57.5,100.4z M58.6,100.8
				c0.4-0.3,0.6-0.9,0.6-1.6c0-0.3,0-0.7-0.1-1.2C59,97.4,59,97.1,59,96.9c0-0.2,0-0.3,0-0.4c-0.7,1.5-1.2,2.4-1.4,2.7
				c0.2,0,0.3,0.1,0.3,0.4C58,100.2,58.2,100.6,58.6,100.8z"/>
			<path fill="#00569B" d="M65.2,97.2c0-0.6-0.2-0.8-0.7-0.8c0,0-0.1,0-0.1,0c-0.2,0-0.3,0-0.3-0.1c0-0.1,0-0.1,0.1-0.2
				c0.1,0,0.2,0,0.4,0c0.5,0.1,0.8,0.3,1,0.7c0.1,0.2,0.2,0.5,0.2,0.7c0,0.8-0.3,1.6-0.9,2.4c-0.6,0.8-1.4,1.2-2.4,1.2
				c-0.4,0-0.6-0.1-0.9-0.3c-0.2-0.2-0.3-0.5-0.3-0.8c0-0.4,0.2-1.1,0.7-2.1c-0.8,1.5-1.3,2.4-1.5,2.6c-0.1,0.1-0.1,0.1-0.1-0.1
				c0,0,0-0.1,0-0.1c0.3-0.4,1-1.7,2-3.6c1-2,1.7-3.3,2.1-3.9c0.3-0.5,0.6-0.7,1-0.7h0h0.1c0,0,0.1,0,0.3,0c0.2,0,0.3,0,0.4,0
				c-0.3,0.3-0.8,1-1.5,2c-1.7,2.5-2.6,4.4-2.6,5.7c0,0.5,0.2,0.8,0.5,0.9c0,0,0.1,0,0.1,0c0.3,0,0.7-0.3,1.1-0.8
				c0.5-0.5,0.8-1.1,1.1-1.8C65.1,97.8,65.2,97.5,65.2,97.2z"/>
			<path fill="#00569B" d="M64.5,105.8c-0.4,0-0.8-0.1-1-0.3c-0.2-0.2-0.3-0.4-0.3-0.6s0.1-0.5,0.2-0.9c0.3-0.5,0.7-0.9,1.4-1.2
				c0.5-0.2,1.1-0.4,2-0.6c0.8-0.2,1.3-0.3,1.6-0.4c0.3-0.6,0.8-1.7,1.2-3.3c-0.6,1-1,1.7-1.4,2.1s-0.8,0.6-1.1,0.6
				c-0.5,0-0.8-0.2-0.9-0.7c0-0.1,0-0.2,0-0.3c0-0.1,0-0.2,0-0.3c0-0.1,0-0.2,0.1-0.3c0.1-0.1,0.1-0.2,0.1-0.3
				c0.1-0.2,0.2-0.4,0.3-0.5c-0.2,0-0.2-0.1-0.1-0.2l0.3-0.5c0.3-0.6,0.6-1.2,0.8-1.6c0.1-0.2,0.3-0.3,0.6-0.3H69
				c0,0-0.1,0.1-0.1,0.1c-0.2,0.1-0.3,0.3-0.4,0.4c-0.3,0.6-0.8,1.5-1.3,2.6c-0.2,0.5-0.3,0.8-0.3,1c0,0.2,0,0.4,0.1,0.5
				c0.1,0.1,0.2,0.1,0.3,0.1c0.2,0,0.4-0.2,0.8-0.6c0.7-0.8,1.4-2.1,2.3-3.8c0.1-0.2,0.3-0.3,0.6-0.3h0.8c-0.3,0.2-0.4,0.4-0.6,0.7
				c-0.1,0.3-0.3,0.6-0.5,1.1c-0.2,0.5-0.4,1.1-0.6,1.8c-0.3,0.8-0.5,1.3-0.6,1.7c0.9-0.3,1.6-0.7,2.1-1.4c0.2-0.3,0.5-0.8,0.9-1.6
				c0.1-0.1,0.1-0.2,0.2-0.2c0.1,0,0.1,0.1,0.1,0.1c0,0-0.1,0.2-0.2,0.6c-0.2,0.3-0.3,0.6-0.5,0.9c-0.2,0.3-0.4,0.6-0.6,0.8
				c-0.3,0.3-0.5,0.5-0.9,0.7c-0.3,0.2-0.7,0.4-1.3,0.5c-0.7,1.4-1.5,2.3-2.2,3C66.1,105.5,65.4,105.8,64.5,105.8z M63.7,104.3
				c-0.1,0.2-0.2,0.4-0.2,0.6c0,0.2,0.1,0.3,0.2,0.4c0.1,0.1,0.3,0.1,0.5,0.1c0.6,0,1.2-0.3,1.8-0.9c0.6-0.6,1.2-1.2,1.7-1.8
				l0.3-0.5c-1.6,0.4-2.6,0.7-3,0.9C64.4,103.4,64,103.8,63.7,104.3z"/>
			<path fill="#00569B" d="M72,100c0-0.8,0.4-2.1,1.2-4h-0.8c0,0-0.1,0-0.1-0.1c0-0.1,0-0.1,0-0.2c0-0.1,0.1-0.1,0.1-0.1h0.9
				c0.3-0.8,0.7-1.4,1-1.9c0.3-0.5,0.6-0.9,0.8-1c0.2-0.2,0.4-0.3,0.5-0.3c0.1,0,0.2,0,0.2,0c0.2,0.1,0.3,0.3,0.3,0.7
				c0,0.3-0.1,0.7-0.3,1.2c-0.2,0.5-0.4,0.9-0.7,1.3h0.7c0,0,0.1,0,0.1,0.1c0,0.1,0,0.1,0,0.2c0,0.1-0.1,0.1-0.1,0.1H75
				c-0.5,0.9-1.2,1.7-1.9,2.4l-0.3,1.5c0,0.1,0,0.2,0,0.4c0,0.1,0,0.2,0.1,0.4c0.1,0.1,0.2,0.2,0.3,0.2c0.2,0,0.3-0.1,0.6-0.2
				c0.5-0.3,1-1.1,1.5-2.2c0-0.1,0.1-0.1,0.1-0.2c0.1,0,0.1,0,0.1,0c0,0,0,0.1,0,0.2c-0.3,0.7-0.6,1.1-0.8,1.4
				c-0.5,0.8-1.1,1.3-1.7,1.3c-0.3,0-0.5-0.1-0.7-0.3C72,100.6,72,100.4,72,100z M74.7,96H74c-0.1,0.3-0.4,0.9-0.8,1.9
				C73.7,97.4,74.2,96.7,74.7,96z M74.9,95.7c0.6-1.1,1-1.9,1-2.4c0-0.2,0-0.3-0.1-0.3c-0.1,0-0.3,0.2-0.5,0.5
				c-0.2,0.3-0.6,1-1.1,2.2H74.9z"/>
			<path fill="#00569B" d="M75.8,98.9c-0.1,0.3-0.2,0.7-0.2,1.1c0,0.3,0.1,0.5,0.2,0.6c0.1,0.2,0.3,0.2,0.5,0.2
				c0.9,0,1.7-0.8,2.4-2.5c0.1-0.2,0.1-0.2,0.2-0.2c0,0,0.1,0,0.1,0.1c0,0-0.1,0.3-0.3,0.8c-0.2,0.5-0.4,0.8-0.7,1.1
				c-0.5,0.7-1.1,1-1.8,1c-0.4,0-0.7-0.1-1-0.4c-0.3-0.3-0.4-0.6-0.4-1s0.1-0.9,0.3-1.4c0.2-0.5,0.5-0.9,0.8-1.4
				c0.4-0.4,0.8-0.7,1.2-0.9c0.2-0.1,0.4-0.1,0.6-0.1c0.2,0,0.4,0.1,0.6,0.2c0.2,0.1,0.2,0.3,0.2,0.5c0,0.6-0.3,1.1-1,1.7
				c-0.2,0.2-0.5,0.3-0.9,0.4C76.3,98.9,76.1,98.9,75.8,98.9z M78.3,96.6c0-0.2-0.1-0.3-0.2-0.3c-0.3,0-0.7,0.3-1.2,1
				c-0.3,0.4-0.6,0.9-0.9,1.4c0.2,0,0.4-0.1,0.7-0.2c0.3-0.1,0.6-0.3,0.8-0.5C78,97.6,78.3,97.1,78.3,96.6z"/>
			<path fill="#00569B" d="M80.7,95.4c0,0.4-0.3,0.8-0.8,1.2c0.2,0,0.5,0,0.8,0s0.7,0,1.2-0.1c0,0,0,0.1,0,0.2
				c0,0.1-0.1,0.3-0.2,0.6c-0.1,0.2-0.2,0.5-0.3,0.6c-0.1,0.2-0.2,0.3-0.3,0.5c-0.1,0.2-0.2,0.4-0.3,0.6c-0.1,0.2-0.2,0.4-0.3,0.6
				c-0.2,0.7-0.2,1.1,0.1,1.1c0.4,0,1-0.8,1.8-2.4c0.1-0.1,0.1-0.2,0.2-0.1c0,0,0.1,0.1,0.1,0.1c0,0-0.1,0.2-0.2,0.4
				c-0.1,0.3-0.3,0.5-0.4,0.8s-0.4,0.6-0.7,0.9c-0.4,0.4-0.7,0.7-1.1,0.7c-0.4,0-0.6-0.2-0.8-0.7c0-0.1,0-0.2,0-0.4
				c0-0.2,0.1-0.4,0.2-0.7c0.1-0.3,0.3-0.6,0.5-1.1c0.2-0.4,0.4-0.7,0.4-0.7c0-0.1,0-0.1,0-0.2c0-0.3-0.4-0.5-1.2-0.5l-0.2,0.5
				c-0.6,1.6-1.2,2.7-1.8,3.2c-0.1,0.1-0.1,0.1-0.1-0.1c0,0,0-0.1,0-0.1c0.5-0.7,1-1.6,1.4-2.5c0.4-1,0.7-1.9,0.8-2.8
				c0.1-0.3,0.2-0.4,0.4-0.4c0.2,0,0.4,0.1,0.5,0.4C80.7,95.1,80.7,95.2,80.7,95.4z"/>
			<path fill="#00569B" d="M83.1,100.9c0.2,0,0.4-0.1,0.6-0.3c0.4-0.4,0.8-1.1,1.4-2.2c0.1-0.1,0.1-0.2,0.2-0.1c0,0,0,0.1,0,0.1
				c0,0,0,0.1-0.1,0.3C85.1,98.8,85,99,85,99.1c-0.1,0.1-0.2,0.4-0.4,0.7c-0.2,0.3-0.3,0.5-0.5,0.7c-0.4,0.5-0.8,0.7-1.1,0.7
				c-0.4,0-0.6-0.1-0.8-0.3c-0.2-0.2-0.2-0.4-0.2-0.7c0-0.3,0.1-0.5,0.2-0.9l0.9-2.4c0-0.1,0-0.1,0-0.2c0-0.1-0.1-0.2-0.2-0.4l0.8,0
				c0.2,0,0.4,0,0.4,0.1c0,0.1,0,0.2-0.1,0.4l-1.2,2.7c-0.2,0.4-0.2,0.7-0.2,0.9C82.7,100.7,82.8,100.9,83.1,100.9z M84.5,95.5
				c-0.1,0.1-0.3,0.2-0.5,0.2c-0.2,0-0.3-0.1-0.4-0.2c-0.1-0.1-0.1-0.3-0.1-0.4c0-0.2,0.1-0.3,0.2-0.4c0.1-0.1,0.3-0.2,0.5-0.2
				c0.2,0,0.3,0.1,0.4,0.2c0.1,0.1,0.1,0.3,0.1,0.4C84.7,95.3,84.7,95.4,84.5,95.5z"/>
			<path fill="#00569B" d="M88.6,98.4c-0.3,0.6-0.5,1.1-0.6,1.4c-0.1,0.3-0.1,0.6-0.1,0.7c0,0.2,0.1,0.3,0.2,0.3
				c0.2,0,0.4-0.2,0.7-0.5c0.4-0.5,0.8-1.1,1.2-1.9c0-0.1,0.1-0.1,0.1-0.1c0.1,0,0.1,0,0.1,0.1c0,0,0,0.1,0,0.2
				c-0.9,1.8-1.6,2.7-2.2,2.7c-0.3,0-0.5-0.1-0.7-0.4c-0.1-0.1-0.1-0.3-0.1-0.6c0-0.2,0-0.5,0.1-0.9c-0.8,1.2-1.4,1.9-2,1.9
				c-0.2,0-0.3,0-0.4-0.1c-0.3-0.2-0.4-0.6-0.4-1c0-0.9,0.4-1.9,1.2-2.9c0.5-0.5,1-0.9,1.7-1.1c0.2,0,0.4-0.1,0.5-0.1
				c0.4,0,0.8,0.2,1.1,0.5c0.1,0.1,0.1,0.2,0.1,0.3c0,0.1-0.1,0.1-0.2,0.1c-0.1-0.3-0.3-0.5-0.7-0.5c-0.4,0-0.9,0.3-1.5,1
				c-0.3,0.4-0.7,0.8-1,1.4c-0.4,0.6-0.6,1.1-0.6,1.5c0,0.4,0.1,0.6,0.4,0.6c0.6,0,1.3-0.9,2.3-2.7c0.2-0.4,0.3-0.6,0.5-0.7
				c0.1-0.1,0.3-0.2,0.5-0.2c0,0,0.1,0,0.3,0c0.2,0,0.3,0,0.4,0C89.2,97.4,88.9,97.8,88.6,98.4z"/>
			<path fill="#00569B" d="M94.3,96.4c-1.2,2.1-1.8,3.4-1.8,4.1c0,0.3,0.1,0.4,0.3,0.4c0.5,0,1.2-0.8,2-2.5c0.1-0.1,0.1-0.2,0.2-0.2
				c0.1,0,0.1,0.1,0.1,0.1c0,0,0,0.1-0.1,0.2c-0.5,1-0.9,1.7-1.3,2.1c-0.4,0.4-0.7,0.6-1.1,0.6c-0.4,0-0.6-0.1-0.8-0.4
				c-0.1-0.1-0.1-0.3-0.1-0.5c0-0.2,0-0.5,0.1-0.8c0.1-0.3,0.4-0.8,0.8-1.5c0.1-0.2,0.2-0.3,0.2-0.4c0-0.1-0.1-0.2-0.2-0.2
				c-0.2,0-0.5,0.2-0.9,0.7c-0.7,0.6-1.4,1.6-2,2.9c-0.1,0.1-0.1,0.2-0.2,0.2c-0.1,0-0.2,0-0.4,0.1s-0.4,0-0.4,0.1
				c0.2-0.3,0.5-0.9,0.9-1.9c0.8-1.7,1.3-2.7,1.6-2.9c0.1-0.1,0.3-0.2,0.5-0.2c0,0,0.1,0,0.3,0c0.2,0,0.3,0,0.4,0
				c-0.4,0.2-0.9,1.1-1.8,2.7c0.5-0.6,0.9-1,1.2-1.3c0.4-0.3,0.8-0.6,1.3-0.9c0.5-0.3,0.9-0.4,1.1-0.4
				C94.2,96.4,94.2,96.4,94.3,96.4z"/>
		</g>
	</g>
</g>
<g id="_x30_._Edit">
</g>
</svg>
