<?xml version="1.0" encoding="utf-8"?>
<!-- Generator: Adobe Illustrator 27.3.0, SVG Export Plug-In . SVG Version: 6.00 Build 0)  -->
<svg version="1.1" xmlns="http://www.w3.org/2000/svg" xmlns:xlink="http://www.w3.org/1999/xlink" x="0px" y="0px"
width="current" height="current"
	 viewBox="0 0 49 58.9" enable-background="new 0 0 49 58.9" xml:space="preserve">
<g id="_x32_._kakaotalk_thumbnail">
</g>
<g id="_x31_._Main_Page">
	<g>
		<circle fill="#4277BD" cx="25.9" cy="23.5" r="23"/>
		<path fill="#181B49" d="M25.9,49.5C11.6,49.5,0,37.8,0,23.5c0-2.8,0.5-5.6,1.4-8.3C1.4,15,1.7,14.8,2,14.9
			c0.3,0.1,0.4,0.4,0.3,0.6c-0.9,2.6-1.3,5.2-1.3,8c0,13.7,11.2,24.9,24.9,24.9c0.3,0,0.5,0.2,0.5,0.5S26.2,49.5,25.9,49.5z"/>
		<path fill="#181B49" d="M25.1,47C16.5,47,9.4,36.5,9.4,23.5S16.5,0,25.1,0s15.7,10.6,15.7,23.5S33.8,47,25.1,47z M25.1,1
			C17,1,10.4,11.1,10.4,23.5S17,46,25.1,46s14.7-10.1,14.7-22.5S33.2,1,25.1,1z"/>
		<rect x="24.6" y="0.5" fill="#181B49" width="1" height="46"/>
		<path fill="#181B49" d="M25.1,55.3c-0.3,0-0.5-0.2-0.5-0.5v-5.8c0-0.3,0.2-0.5,0.5-0.5s0.5,0.2,0.5,0.5v5.8
			C25.6,55,25.4,55.3,25.1,55.3z"/>
		<path fill="#F45C37" d="M25.1,54.6c-2.3,0-4.2,1.9-4.2,4.2h8.5C29.4,56.5,27.5,54.6,25.1,54.6z"/>
		<g>
			<defs>
				<circle id="SVGID_00000060746225595593835690000002119640944667251090_" cx="25.9" cy="23.5" r="23"/>
			</defs>
			<clipPath id="SVGID_00000132068902701570992720000017076359744825894586_">
				<use xlink:href="#SVGID_00000060746225595593835690000002119640944667251090_"  overflow="visible"/>
			</clipPath>
			<g clip-path="url(#SVGID_00000132068902701570992720000017076359744825894586_)">
				<path fill="#181B49" d="M25.9,12.2c-7.2,0-14-0.8-18.4-2.2C7.3,9.9,7.1,9.6,7.2,9.3C7.3,9.1,7.6,8.9,7.8,9
					c4.4,1.4,11,2.2,18.1,2.2c7,0,13.4-0.8,17.8-2.1C44,9,44.3,9.2,44.4,9.4c0.1,0.3-0.1,0.5-0.3,0.6C39.6,11.4,33,12.2,25.9,12.2z"
					/>
				<path fill="#181B49" d="M43.9,38.3c0,0-0.1,0-0.2,0c-4.4-1.4-10.9-2.2-18.1-2.2c-7,0-13.4,0.8-17.8,2.1
					c-0.3,0.1-0.5-0.1-0.6-0.3c-0.1-0.3,0.1-0.5,0.3-0.6c4.4-1.3,11-2.1,18.1-2.1c7.2,0,14,0.8,18.4,2.2c0.3,0.1,0.4,0.4,0.3,0.6
					C44.3,38.2,44.1,38.3,43.9,38.3z"/>
				<path fill="#181B49" d="M49,24h-46c-0.3,0-0.5-0.2-0.5-0.5S2.6,23,2.9,23h46c0.3,0,0.5,0.2,0.5,0.5S49.2,24,49,24z"/>
			</g>
		</g>
	</g>
</g>
<g id="_x30_._Edit">
</g>
</svg>
