<?xml version="1.0" encoding="utf-8"?>
<!-- Generator: Adobe Illustrator 27.3.0, SVG Export Plug-In . SVG Version: 6.00 Build 0)  -->
<svg version="1.1" xmlns="http://www.w3.org/2000/svg" xmlns:xlink="http://www.w3.org/1999/xlink" x="0px" y="0px"
width="current" height="current"
	 viewBox="0 0 335.1 157.3" enable-background="new 0 0 335.1 157.3" xml:space="preserve">
<g id="_x32_._kakaotalk_thumbnail">
</g>
<g id="_x31_._Main_Page">
	<g id="Gather_Town_00000099622589413589998800000000950597479184241286_">
		<g id="Ticket_00000060024340573002638530000003780248230706131869_">
			<g>
				<path fill="#134C84" d="M314.4,68.3c0.6,8.4,8,14.7,16.5,14.1l3.2,45.3c0.2,3.5-2.4,6.5-6,6.8l-76.2,5.4
					c-2.1,0.1-4.2-0.6-5.4-2.3c-1-1.3-2.6-2-4.3-1.9c-1.7,0.1-3.2,1.1-4,2.5c-1,1.8-3,2.9-5.1,3L16.3,156.4
					c-3.6,0.3-6.6-2.4-6.9-5.9l-3.2-45.3c8.4-0.7,14.7-7.9,14.2-16.2C19.8,80.8,12.5,74.5,4.1,75L0.9,29.7c-0.2-3.5,2.4-6.5,6-6.8
					L223.8,7.6c2.1-0.1,4.2,0.6,5.4,2.3c1,1.3,2.6,2,4.3,1.9c1.7-0.1,3.2-1.1,4-2.5c1-1.8,3-2.9,5.1-3l76.2-5.4
					c3.6-0.3,6.6,2.4,6.9,5.9l3.2,45.3C320.3,52.6,313.8,59.9,314.4,68.3z"/>
				<path fill="#134C84" d="M16,157.3c-3.9,0.1-7.2-2.8-7.5-6.7l-3.3-46.1l0.9-0.1c7.9-0.7,13.9-7.5,13.4-15.3
					C19,81.4,12.1,75.4,4.1,75.9l-0.9,0L0,29.8c-0.3-4,2.8-7.4,6.8-7.7L223.7,6.7c2.5-0.2,4.8,0.8,6.2,2.6c0.8,1.1,2.1,1.7,3.5,1.6
					c1.4-0.1,2.6-0.9,3.3-2.1c1.1-2,3.3-3.3,5.8-3.4L318.7,0c4-0.3,7.5,2.7,7.8,6.7l3.3,46.1l-0.9,0.1c-3.9,0.3-7.5,2-10,4.9
					c-2.6,2.9-3.8,6.6-3.6,10.4v0c0.3,3.8,2,7.3,5,9.8c3,2.5,6.7,3.7,10.6,3.5l0.9-0.1l3.3,46.1c0.1,1.9-0.5,3.8-1.8,5.2
					c-1.3,1.4-3.1,2.3-5,2.5l-76.2,5.4c-2.5,0.2-4.8-0.8-6.2-2.6c-0.8-1.1-2.2-1.7-3.5-1.6c-1.4,0.1-2.6,0.9-3.3,2.1
					c-1.1,2-3.3,3.3-5.8,3.4L16.4,157.3C16.3,157.3,16.1,157.3,16,157.3z M7.2,106.1l3.1,44.5c0.2,3,2.9,5.3,6,5.1l216.9-15.3
					c1.9-0.1,3.5-1.1,4.4-2.6c1-1.7,2.7-2.8,4.7-2.9c2-0.1,3.9,0.7,5,2.2c1,1.3,2.8,2.1,4.7,1.9l76.2-5.4c1.5-0.1,2.9-0.8,3.8-1.9
					c1-1.1,1.5-2.5,1.4-4l-3.1-44.4c-4.1,0.1-7.9-1.3-11-3.9c-3.3-2.8-5.3-6.7-5.6-11v0c-0.3-4.3,1.1-8.4,4-11.7
					c2.7-3,6.3-4.9,10.4-5.4l-3.1-44.4c-0.2-3-2.9-5.3-6-5.1l-76.2,5.4c-1.9,0.1-3.5,1.1-4.4,2.6c-1,1.7-2.7,2.8-4.7,2.9
					c-2,0.1-3.9-0.7-5-2.2c-1-1.3-2.8-2.1-4.7-1.9L6.9,23.8c-3.1,0.2-5.4,2.8-5.2,5.8l3.1,44.5c8.5,0,15.8,6.5,16.4,14.9
					C21.8,97.4,15.6,104.9,7.2,106.1z"/>
			</g>
			<path fill="#EBEAD9" d="M251.7,135.8c-0.8,0.1-1.5-0.2-1.9-0.7c-1.8-2.4-4.7-3.7-7.8-3.5c-3.1,0.2-5.8,1.9-7.3,4.6
				c-0.3,0.5-1,0.9-1.8,0.9L16,152.5c-1.3,0.1-2.5-0.9-2.6-2.2l-3-41.8c8.6-2.5,14.5-10.7,13.9-19.7c-0.6-9-7.7-16.3-16.5-17.6
				l-3-41.8c-0.1-1.3,0.9-2.4,2.2-2.5L224,11.6c0.8-0.1,1.5,0.2,1.9,0.7c1.8,2.4,4.7,3.7,7.8,3.5c3.1-0.2,5.8-1.9,7.3-4.6
				c0.3-0.5,1-0.9,1.8-0.9L319,4.9c1.3-0.1,2.5,0.9,2.6,2.2l3,41.7c-8.7,2.5-14.8,10.6-14.2,19.8c0.7,9.2,7.8,16.4,16.8,17.6l3,41.7
				c0.1,1.3-0.9,2.4-2.2,2.5L251.7,135.8z"/>
			<path fill="#134C84" d="M300.2,68.7c-1.9-0.6-5.3-1.3-7.9-0.5l-9.6,3.1l-20-12.5c-0.4-0.3-1.1-0.2-1.4,0.3l-0.5,0.9
				c-0.2,0.3-0.1,0.7,0.1,0.9l8.8,14.4l-6,1.9c-0.8,0.2-1.5,0.4-2.2,0.7c-0.2,0.1-0.4,0.2-0.6,0.2l-6.2-4.8c-0.4-0.3-1-0.2-1.3,0.1
				l-0.6,0.7c-0.2,0.3-0.3,0.7-0.1,1l3.1,5.5c-0.8,0.6-0.5,0.8-1,1.3c-0.7,0.6-0.4,1.8,0.6,1.9c0.7,0.1,0.6,0.5,1.6,0.5l37.5-9.3
				c4.8-1.3,5.6-3.1,6.3-4.7C301,69.8,301,69,300.2,68.7z"/>
			<path fill="#134C84" d="M241.6,126.7c-0.5,0-0.9-0.3-0.9-0.8l-0.7-10.4c0-0.5,0.3-0.9,0.8-0.9c0.5,0,0.9,0.3,0.9,0.8l0.7,10.4
				C242.4,126.3,242.1,126.7,241.6,126.7C241.6,126.7,241.6,126.7,241.6,126.7z M240.1,106c-0.5,0-0.9-0.3-0.9-0.8l-0.7-10.4
				c0-0.5,0.3-0.9,0.8-0.9c0.5,0,0.9,0.3,0.9,0.8l0.7,10.4C241,105.5,240.6,105.9,240.1,106C240.1,106,240.1,106,240.1,106z
				 M238.6,85.2c-0.5,0-0.9-0.3-0.9-0.8L237,74.1c0-0.5,0.3-0.9,0.8-0.9c0.5,0,0.9,0.3,0.9,0.8l0.7,10.4
				C239.5,84.8,239.2,85.2,238.6,85.2C238.7,85.2,238.6,85.2,238.6,85.2z M237.2,64.5c-0.5,0-0.9-0.3-0.9-0.8l-0.7-10.4
				c0-0.5,0.3-0.9,0.8-0.9c0.5,0,0.9,0.3,0.9,0.8l0.7,10.4C238,64,237.7,64.5,237.2,64.5C237.2,64.5,237.2,64.5,237.2,64.5z
				 M235.7,43.8c-0.5,0-0.9-0.3-0.9-0.8l-0.7-10.4c0-0.5,0.3-0.9,0.8-0.9c0.5,0,0.9,0.3,0.9,0.8l0.7,10.4
				C236.6,43.3,236.2,43.7,235.7,43.8C235.7,43.7,235.7,43.7,235.7,43.8z M234.2,23c-0.5,0-0.9-0.3-0.9-0.8l-0.7-10.4
				c0-0.5,0.3-0.9,0.8-0.9c0.5,0,0.9,0.3,0.9,0.8l0.7,10.4C235.1,22.6,234.7,23,234.2,23C234.3,23,234.2,23,234.2,23z"/>
			
				<rect x="21.3" y="137.4" transform="matrix(0.9975 -7.117671e-02 7.117671e-02 0.9975 -9.4949 9.2799)" fill="#134C84" width="208.3" height="0.9"/>
			
				<rect x="21" y="133.4" transform="matrix(0.9975 -7.117671e-02 7.117671e-02 0.9975 -9.2097 9.2495)" fill="#134C84" width="208.3" height="0.9"/>
			
				<rect x="20.7" y="129.4" transform="matrix(0.9975 -7.117671e-02 7.117671e-02 0.9975 -8.9245 9.2191)" fill="#134C84" width="208.3" height="0.9"/>
			
				<rect x="20.4" y="125.4" transform="matrix(0.9975 -7.107708e-02 7.107708e-02 0.9975 -8.6276 9.1753)" fill="#134C84" width="208.3" height="0.9"/>
		</g>
		<g>
			<path fill="#134C84" d="M76.8,80.6c-0.9,0.1-1.6-0.2-2.1-0.9c-0.5-0.6-0.8-1.6-0.8-2.9c0-1.4-0.1-2.9-0.2-4.5
				c-0.1-1.5-0.2-3.1-0.3-4.7c-0.5,0.1-1.1,0.2-1.8,0.3c-0.7,0.1-1.3,0.1-1.8,0.1c0,1.3,0,2.6,0,3.9c0,1.3-0.1,2.5-0.3,3.7
				c-0.2,1.2-0.6,2-1.3,2.5c-0.7,0.5-1.5,0.7-2.4,0.6c-0.4-0.1-0.7-0.1-1-0.3c-0.3-0.1-0.5-0.4-0.6-0.7c-0.1-0.3-0.2-0.7-0.3-1.2
				c0-0.5,0-1.2,0.1-1.9c0.1-0.8,0.2-1.7,0.2-2.8s0-2.3,0-3.5c0-1.2-0.1-2.4-0.1-3.6c-0.1-1.2-0.1-2.2-0.2-3.2c0-0.6-0.2-1-0.3-1.3
				c-0.2-0.3-0.7-0.4-1.5-0.5c-0.7-0.1-1.3-0.1-1.9-0.1c-0.6,0-1.3-0.1-2.2,0c-1.6,0-2.4-0.9-2.4-2.6c0-0.8,0.3-1.4,0.9-1.7
				c0.6-0.4,1.5-0.6,2.8-0.7c1.1-0.1,2.2-0.1,3.3-0.1c1.1,0,2.2,0.1,3.3,0.3c0.6,0.1,1.2,0.3,1.7,0.5c0.5,0.2,0.9,0.5,1.2,0.9
				c0.3,0.4,0.6,1,0.7,1.6c0.2,0.7,0.3,1.5,0.3,2.5l0.1,2.9c0.5-0.1,1.1-0.2,1.6-0.3c0.6-0.1,1.2-0.2,1.7-0.2
				c-0.1-1.1-0.2-2.2-0.3-3.3c-0.1-1.1-0.2-2.1-0.3-3.2c-0.1-1.1,0-2,0.3-2.8c0.3-0.8,1-1.2,2-1.3c0.4,0,0.8,0,1.1,0.1
				c0.4,0.1,0.7,0.3,1,0.5c0.3,0.3,0.6,0.7,0.8,1.2c0.2,0.5,0.4,1.2,0.5,2.1c0.1,0.6,0.1,1.4,0.2,2.3c0.1,1,0.2,2.1,0.3,3.3
				c0.1,1.2,0.2,2.5,0.3,3.8s0.2,2.7,0.3,4s0.2,2.6,0.2,3.8c0.1,1.2,0.1,2.3,0.1,3.2c0,1.2-0.2,2.2-0.7,3
				C78.3,80.1,77.6,80.5,76.8,80.6z M80.5,55.2c-0.2-1.4-0.1-2.4,0.4-3.2c0.5-0.8,1.1-1.2,1.9-1.2c0.4,0,0.8,0,1.1,0.1
				c0.4,0.1,0.7,0.3,1,0.7c0.3,0.3,0.6,0.8,0.8,1.3c0.2,0.6,0.3,1.3,0.4,2.2c0.1,0.6,0.1,1.4,0.2,2.4c0.1,1,0.2,2.2,0.3,3.4
				c0.1,1.3,0.2,2.6,0.4,4c0.1,1.4,0.2,2.8,0.4,4.2c0.1,1.4,0.2,2.7,0.3,4c0.1,1.3,0.1,2.4,0.2,3.3c0,1.2-0.2,2.2-0.7,3
				c-0.5,0.7-1.2,1.1-2,1.2c-0.9,0.1-1.6-0.2-2.1-0.9s-0.8-1.6-0.8-2.9c0-0.4,0-1.1-0.1-2.1c0-1-0.1-2.1-0.2-3.4s-0.2-2.7-0.3-4.1
				c-0.1-1.5-0.2-3-0.3-4.4s-0.3-2.8-0.4-4.2C80.8,57.3,80.7,56.1,80.5,55.2z"/>
			<path fill="#134C84" d="M90.6,54.7c0-0.8,0.2-1.5,0.6-1.9c0.5-0.4,1.2-0.7,2.2-0.8c0.4-0.1,0.9-0.1,1.6-0.2s1.4-0.1,2.2-0.2
				c0.8-0.1,1.6-0.1,2.5-0.2c0.9-0.1,1.7-0.1,2.5-0.2c0.8-0.1,1.6-0.1,2.2-0.1c0.7,0,1.2-0.1,1.6-0.1c1,0,1.8,0.2,2.2,0.6
				c0.4,0.4,0.7,1,0.8,1.9c0,0.3,0,0.6-0.1,0.9c-0.1,0.3-0.2,0.5-0.4,0.8c-0.2,0.2-0.5,0.4-0.9,0.6c-0.4,0.2-0.9,0.2-1.4,0.2
				c-0.6,0-1.3,0-2.2,0.1c-0.9,0.1-1.7,0.1-2.6,0.2s-1.7,0.1-2.4,0.2c-0.7,0.1-1.3,0.1-1.6,0.2c-0.3,0-0.5,0.1-0.6,0.2
				c-0.1,0.1-0.1,0.3-0.1,0.6c0,1,0.1,2.1,0.2,3.2c0.1,1.1,0.1,2.2,0.2,3.2s0.1,2,0.2,2.9c0.1,0.9,0.2,1.7,0.2,2.4
				c0.1,0.5,0.2,0.9,0.3,1c0.2,0.1,0.5,0.2,1.1,0.2c0.5,0,1,0,1.7-0.1c0.6,0,1.4-0.1,2.2-0.1c0.8-0.1,1.6-0.1,2.4-0.2
				c0.8-0.1,1.7-0.2,2.5-0.3c1.2-0.2,2.1,0,2.7,0.4c0.6,0.4,0.9,1.1,1,1.9c0.1,0.9-0.1,1.5-0.6,2c-0.5,0.5-1.3,0.8-2.3,0.9
				c-1.9,0.3-3.9,0.5-6,0.7c-2.1,0.2-4,0.3-5.9,0.3c-0.9,0-1.6,0-2.2-0.1c-0.6-0.1-1-0.3-1.4-0.5c-0.4-0.2-0.6-0.6-0.8-1
				c-0.2-0.4-0.3-0.9-0.3-1.5c-0.1-1.5-0.2-2.9-0.4-4.3c-0.1-1.4-0.3-2.8-0.4-4.2c-0.1-1.4-0.2-2.9-0.3-4.5S90.7,56.5,90.6,54.7z
				 M118.7,78.5c-1,0.1-1.7-0.2-2.3-0.9c-0.6-0.6-0.8-1.6-0.9-2.9c-0.1-1.6-0.1-3.3-0.2-5c-0.1-1.8-0.2-3.5-0.3-5.1
				c-0.7,0-1.5,0.1-2.2,0.1c-0.8,0-1.5,0.1-2.2,0.1s-1.4,0.1-2,0.2s-1.1,0.1-1.6,0.1c-0.8,0.1-1.4-0.1-1.9-0.5
				c-0.4-0.4-0.7-1-0.8-1.6c-0.1-0.7,0-1.4,0.3-2c0.3-0.6,0.9-1,1.6-1.2c0.2-0.1,0.7-0.1,1.3-0.2c0.6-0.1,1.3-0.1,2.1-0.2
				c0.8-0.1,1.6-0.1,2.5-0.2c0.9-0.1,1.7-0.1,2.5-0.2c0-0.7-0.1-1.3-0.1-1.8c-0.1-0.6-0.1-1.1-0.2-1.5c-0.1-0.5-0.1-1.1-0.3-1.8
				c-0.1-0.7-0.2-1.3-0.3-1.9c-0.3-2.1,0.5-3.3,2.4-3.4c0.4,0,0.8,0,1.3,0.1c0.4,0.1,0.8,0.3,1.1,0.7s0.6,0.8,0.9,1.3
				c0.2,0.6,0.4,1.3,0.6,2.2c0.1,0.7,0.2,1.6,0.3,2.7c0.1,1.1,0.2,2.3,0.3,3.5c0.1,1.3,0.2,2.6,0.3,4c0.1,1.4,0.2,2.8,0.3,4.1
				c0.1,1.4,0.1,2.7,0.2,3.9c0.1,1.2,0.1,2.3,0.1,3.3c0,1.2-0.2,2.2-0.6,2.9C120.4,78,119.7,78.4,118.7,78.5z"/>
			<path fill="#134C84" d="M130.7,73.9c-0.9,0-1.6,0-2.1-0.1c-0.6-0.1-1-0.3-1.4-0.5c-0.4-0.2-0.6-0.6-0.8-1
				c-0.2-0.4-0.3-0.9-0.3-1.5c-0.1-1.5-0.2-2.9-0.3-4.3c-0.1-1.4-0.2-2.8-0.3-4.3c-0.1-1.4-0.2-3-0.3-4.5s-0.2-3.3-0.3-5.1
				c0-0.8,0.2-1.5,0.6-1.9c0.5-0.4,1.2-0.7,2.2-0.8c0.6-0.1,1.4-0.2,2.5-0.3c1.1-0.1,2.2-0.2,3.4-0.3c1.2-0.1,2.3-0.1,3.5-0.2
				c1.1-0.1,2.1-0.1,2.9-0.1c1,0,1.8,0.2,2.2,0.6c0.4,0.4,0.7,1,0.8,1.9c0,0.3,0,0.6-0.1,0.9c-0.1,0.3-0.2,0.5-0.4,0.8
				c-0.2,0.2-0.5,0.4-0.9,0.6c-0.4,0.2-0.9,0.2-1.4,0.2c-0.7,0-1.4,0-2.1,0.1c-0.7,0-1.5,0.1-2.2,0.1c-0.7,0-1.5,0.1-2.2,0.1
				c-0.7,0-1.4,0.1-1.9,0.1c-0.3,0-0.5,0.1-0.6,0.2c-0.1,0.1-0.1,0.3-0.1,0.6c0,0.6,0,1.2,0.1,1.8c0,0.6,0.1,1.2,0.1,1.9
				c0.9-0.1,1.8-0.2,2.8-0.2c0.9-0.1,1.8-0.1,2.6-0.2c0.8,0,1.5-0.1,2.2-0.1c0.6,0,1.1-0.1,1.5-0.1c1,0,1.8,0.2,2.2,0.6
				s0.7,1,0.8,1.9c0,0.3,0,0.6-0.1,0.9c-0.1,0.3-0.2,0.5-0.4,0.8c-0.2,0.2-0.5,0.4-0.9,0.6c-0.4,0.2-0.9,0.2-1.4,0.2
				c-0.5,0-1,0-1.7,0.1c-0.7,0-1.4,0.1-2.2,0.1c-0.8,0.1-1.6,0.1-2.5,0.2s-1.7,0.1-2.5,0.2c0,0.7,0.1,1.3,0.1,1.9
				c0,0.6,0.1,1.1,0.1,1.6c0.1,0.5,0.2,0.9,0.3,1c0.2,0.1,0.5,0.2,1.1,0.2c0.5,0,1,0,1.7-0.1c0.7,0,1.5-0.1,2.3-0.1
				c0.8-0.1,1.7-0.1,2.5-0.2s1.7-0.2,2.6-0.3c1.2-0.2,2.1,0,2.7,0.4s0.9,1.1,1,1.9c0.1,0.9-0.1,1.5-0.6,2c-0.5,0.5-1.3,0.8-2.3,0.9
				c-1.9,0.3-4,0.5-6.2,0.7C134.6,73.8,132.6,73.9,130.7,73.9z M146.1,50c-0.1-1,0-1.9,0.4-2.5c0.4-0.7,1.2-1,2.4-1.1
				c0.4,0,0.8,0,1.2,0.1c0.4,0.1,0.7,0.3,1,0.7c0.3,0.3,0.6,0.8,0.8,1.3c0.2,0.6,0.3,1.3,0.4,2.2c0.1,1,0.2,2,0.2,3s0.1,2,0.2,3
				c0.5,0,0.9-0.1,1.4-0.1c0.5,0,1,0,1.4,0c0.6,0,1.1,0.3,1.6,0.7s0.8,1,0.8,1.7c0,0.7-0.1,1.3-0.3,1.8c-0.3,0.6-0.7,1-1.4,1.2
				c-0.4,0.2-0.9,0.3-1.4,0.4c-0.6,0.1-1.1,0.2-1.6,0.2c0.1,0.8,0.1,1.7,0.2,2.6c0.1,0.9,0.1,1.8,0.2,2.6c0,0.9,0.1,1.7,0.1,2.4
				c0,0.8,0.1,1.4,0.1,2c0,1.2-0.2,2.2-0.6,2.9c-0.5,0.7-1.2,1.1-2.1,1.2c-1,0.1-1.7-0.2-2.3-0.9c-0.6-0.6-0.8-1.6-0.8-2.9
				c0-0.4,0-0.9,0-1.7c0-0.8-0.1-1.7-0.1-2.8c-0.1-1.1-0.1-2.2-0.2-3.5c-0.1-1.3-0.1-2.5-0.2-3.8c-0.1-1.3-0.2-2.6-0.3-3.8
				c-0.1-1.3-0.2-2.4-0.3-3.5c-0.1-0.5-0.1-1.1-0.2-1.8C146.2,51.1,146.2,50.5,146.1,50z"/>
			<path fill="#134C84" d="M176.1,68.8c-0.9,0.1-1.7-0.1-2.3-0.6c-0.6-0.5-0.9-1.2-1.1-2.2c0-0.3-0.1-0.5-0.1-0.7s0-0.4,0-0.6
				c-2.1,0.1-4.1,0.3-6,0.4s-3.6,0.2-4.9,0.3c-1,0-1.8-0.2-2.3-0.6c-0.5-0.4-0.8-1-0.9-1.8c0-0.3,0-0.6,0.1-0.9
				c0.1-0.3,0.3-0.6,0.5-0.8c0.2-0.2,0.6-0.4,1-0.6c0.4-0.2,0.9-0.2,1.5-0.3c1.1,0,2.3-0.1,3.8-0.2s3-0.2,4.6-0.3
				c1.6-0.1,3.3-0.2,5-0.3c1.7-0.1,3.3-0.2,4.9-0.4c1.6-0.1,3-0.2,4.4-0.3c1.4-0.1,2.5-0.2,3.5-0.3c0.6-0.1,1.2,0,1.6,0.1
				s0.8,0.3,1.1,0.5c0.3,0.2,0.5,0.5,0.6,0.8c0.1,0.3,0.2,0.6,0.2,1c0,0.7-0.2,1.4-0.6,1.9c-0.5,0.5-1.2,0.8-2.2,0.9
				c-1,0.1-2.3,0.2-4,0.3c-1.6,0.1-3.5,0.2-5.4,0.4l0,0.2c0.1,1.4-0.1,2.4-0.7,3.1C177.8,68.3,177.1,68.7,176.1,68.8z M163.2,73.5
				c-0.1-0.8-0.2-1.6-0.2-2.4c0-0.9,0-1.6,0-2.4c0-0.7,0.2-1.3,0.7-1.8c0.4-0.5,1.1-0.8,2.1-0.8c1,0,1.7,0.2,2.2,0.6
				c0.5,0.4,0.8,1.1,0.8,2l0.1,1.4c0,0.3,0.1,0.5,0.2,0.6c0.1,0.1,0.3,0.1,0.6,0.1c1.2-0.1,2.4-0.2,3.8-0.2c1.3-0.1,2.7-0.2,4.1-0.3
				c1.4-0.1,2.7-0.2,4-0.3c1.3-0.1,2.5-0.2,3.6-0.3c1.2-0.1,2.2,0,3,0.4c0.8,0.4,1.2,1,1.2,1.8c0.1,1.8-0.8,2.8-2.9,2.9
				c-1.5,0.1-3.1,0.3-4.8,0.4c-1.6,0.1-3.3,0.3-5,0.4c-1.7,0.1-3.3,0.2-5,0.3c-1.7,0.1-3.3,0.1-4.9,0.1c-0.5,0-1,0-1.4-0.1
				c-0.4-0.1-0.8-0.2-1.1-0.4c-0.3-0.2-0.5-0.4-0.7-0.8C163.4,74.5,163.2,74,163.2,73.5z M164.4,51.4c-0.1-1.1,0.1-2.2,0.5-3.1
				s1-1.8,1.9-2.6c0.8-0.7,1.8-1.3,3-1.8c1.2-0.5,2.5-0.8,4.1-0.9c1.3-0.1,2.6,0,3.7,0.3c1.2,0.3,2.2,0.8,3.1,1.4
				c0.9,0.6,1.6,1.4,2.2,2.3c0.5,0.9,0.9,1.9,0.9,3.1c0.1,1.2-0.1,2.3-0.5,3.3c-0.4,1-1,1.9-1.8,2.6c-0.8,0.8-1.8,1.4-2.9,1.8
				s-2.3,0.7-3.7,0.8c-1.5,0.1-2.9,0-4.2-0.3c-1.2-0.3-2.3-0.8-3.2-1.4c-0.9-0.6-1.6-1.4-2.2-2.4C164.8,53.6,164.5,52.6,164.4,51.4z
				 M170.6,51.1c0.1,0.8,0.4,1.5,1.1,2c0.7,0.5,1.6,0.7,2.8,0.7c1.1-0.1,2-0.4,2.7-1c0.7-0.6,1-1.3,0.9-2.1c-0.1-0.8-0.4-1.5-1.2-2
				c-0.7-0.5-1.7-0.8-2.8-0.7c-1.2,0.1-2.1,0.4-2.7,1S170.5,50.3,170.6,51.1z"/>
			<path fill="#134C84" d="M56.4,88.6l-0.1-1.9l136.3-9l0.1,1.9L56.4,88.6z"/>
			<path fill="#494B68" d="M99.7,110.5c-0.6,0-1.2,0-1.6-0.1c-0.4-0.1-0.8-0.2-1-0.4c-0.3-0.2-0.5-0.4-0.6-0.7
				c-0.1-0.3-0.2-0.7-0.2-1.1c-0.1-0.8-0.2-1.8-0.2-2.9c-0.1-1.1-0.2-2.3-0.3-3.5c-0.1-1.2-0.2-2.4-0.3-3.5
				c-0.1-1.1-0.1-2.1-0.2-2.8c-0.1-0.8,0.1-1.4,0.5-1.9c0.4-0.4,0.9-0.7,1.5-0.7c0.6,0,1.1,0.1,1.6,0.4s0.7,0.9,0.8,1.8l0.2,3.3
				l5-0.4c-0.1-0.8-0.1-1.5-0.2-2.1c-0.1-0.6-0.1-1.1-0.1-1.5c0-0.7,0.1-1.2,0.5-1.6c0.4-0.4,0.8-0.7,1.5-0.7c0.5,0,1,0.1,1.5,0.4
				c0.5,0.3,0.7,0.9,0.8,1.7c0,0.6,0.1,1.5,0.2,2.6c0.1,1.1,0.1,2.3,0.2,3.6c0.1,1.3,0.1,2.5,0.2,3.8c0.1,1.2,0.1,2.3,0.2,3.1
				c0,0.4,0,0.8-0.1,1.1c-0.1,0.3-0.2,0.6-0.5,0.8c-0.2,0.2-0.6,0.4-1,0.5c-0.4,0.1-0.9,0.2-1.5,0.3c-1.1,0.2-2.2,0.3-3.4,0.4
				C101.9,110.5,100.8,110.6,99.7,110.5z M100,101.9c0.1,0.9,0.1,1.6,0.2,2.3c0.1,0.7,0.1,1.2,0.1,1.5c0,0.4,0.1,0.6,0.2,0.7
				c0.1,0.1,0.4,0.1,0.8,0.1c0.2,0,0.4,0,0.7,0c0.3,0,0.5,0,0.8,0c0.3,0,0.5,0,0.8-0.1c0.3,0,0.5-0.1,0.6-0.1c0.4,0,0.7-0.1,0.8-0.2
				c0.1-0.1,0.2-0.4,0.2-0.8c0-0.3,0-0.8-0.1-1.5c0-0.7-0.1-1.5-0.1-2.3L100,101.9z M111.3,93.1c-0.1-0.8,0-1.4,0.3-1.9
				c0.3-0.5,0.8-0.7,1.6-0.8c0.3,0,0.6,0,0.9,0.1c0.3,0.1,0.5,0.2,0.8,0.5s0.4,0.6,0.6,1c0.1,0.4,0.3,0.9,0.3,1.6
				c0.1,0.7,0.1,1.5,0.1,2.2c0,0.7,0.1,1.5,0.1,2.2c0.3,0,0.7,0,1.1-0.1c0.4,0,0.7,0,1,0c0.4,0,0.8,0.2,1.2,0.5
				c0.4,0.3,0.6,0.8,0.6,1.2c0,0.5-0.1,0.9-0.2,1.3c-0.2,0.4-0.5,0.7-1,0.9c-0.3,0.1-0.6,0.2-1.1,0.3c-0.4,0.1-0.8,0.1-1.2,0.2
				c0,0.6,0.1,1.3,0.1,1.9c0,0.7,0.1,1.3,0.1,1.9c0,0.6,0.1,1.2,0.1,1.8c0,0.6,0,1.1,0.1,1.5c0,0.9-0.1,1.6-0.5,2.2
				c-0.3,0.5-0.9,0.8-1.6,0.9s-1.3-0.2-1.7-0.6s-0.6-1.2-0.6-2.1c0-0.3,0-0.7,0-1.3c0-0.6-0.1-1.3-0.1-2c0-0.8-0.1-1.6-0.1-2.5
				c-0.1-0.9-0.1-1.9-0.2-2.8s-0.1-1.9-0.2-2.8c-0.1-0.9-0.2-1.8-0.3-2.5L111.3,93.1z"/>
			<path fill="#494B68" d="M122.8,110.3c-0.7,0-1.3-0.2-1.6-0.6c-0.3-0.4-0.5-0.8-0.5-1.4c0-0.5,0.2-1,0.5-1.4
				c0.3-0.4,0.9-0.6,1.8-0.6c2.3-0.1,4.7-0.2,7.3-0.3c0-0.1,0-0.3-0.1-0.4c0-0.1,0-0.3,0-0.4c0-0.5,0-0.9,0.1-1.3
				c-0.7,0-1.4,0.1-2,0.1c-0.6,0-1.2,0-1.8,0c-0.7,0-1.3,0-1.7-0.1c-0.5-0.1-0.8-0.2-1.1-0.5c-0.3-0.2-0.5-0.5-0.6-0.9
				c-0.1-0.4-0.3-0.8-0.3-1.3c-0.1-0.5-0.1-1.1-0.2-1.7c-0.1-0.6-0.1-1.3-0.1-2c0-0.6,0.2-1.1,0.5-1.4c0.3-0.3,0.9-0.5,1.6-0.6
				c0.2,0,0.6-0.1,1.1-0.1c0.5-0.1,1.1-0.1,1.8-0.2c0.7-0.1,1.4-0.1,2.2-0.2c0.8-0.1,1.6-0.1,2.4-0.2s1.6-0.1,2.4-0.1
				c0.8,0,1.5-0.1,2.2-0.1c0.1,0,0.2,0,0.2-0.1c0,0,0-0.1,0-0.2c0-0.1,0-0.3,0-0.6c0-0.3,0-0.5-0.1-0.6c0-0.1-0.1-0.2-0.3-0.2
				c-0.5,0-1.2,0.1-2.1,0.1c-0.9,0.1-1.9,0.2-3,0.2s-2.2,0.2-3.4,0.3c-1.2,0.1-2.3,0.2-3.3,0.3c-0.5,0.1-0.9,0-1.3,0
				c-0.3-0.1-0.6-0.2-0.8-0.3s-0.3-0.3-0.4-0.6c-0.1-0.2-0.1-0.5-0.2-0.8c0-0.5,0.1-1,0.4-1.3c0.3-0.4,0.9-0.6,1.8-0.7
				c0.3,0,0.8-0.1,1.5-0.1c0.7-0.1,1.6-0.1,2.6-0.2c1-0.1,2-0.2,3.1-0.2s2.2-0.2,3.1-0.2c1-0.1,1.9-0.1,2.6-0.2
				c0.8,0,1.3-0.1,1.6-0.1c0.8,0,1.3,0.1,1.7,0.4c0.4,0.3,0.6,0.7,0.7,1.3c0,0.2,0.1,0.5,0.1,1c0,0.5,0.1,0.9,0.1,1.5s0.1,1,0.1,1.5
				s0,0.8,0,1.1c0,0.6-0.1,1-0.4,1.4c-0.3,0.4-0.8,0.5-1.7,0.6c-0.7,0-1.4,0.1-2.2,0.1s-1.6,0.1-2.4,0.1s-1.6,0.1-2.3,0.2
				c-0.8,0.1-1.5,0.1-2.1,0.2c-0.7,0.1-1.2,0.1-1.8,0.2s-0.9,0.1-1.2,0.1c-0.2,0-0.4,0.1-0.5,0.1c-0.1,0.1-0.1,0.2-0.1,0.3l0,0.8
				c0,0.2,0.2,0.4,0.7,0.4c1.8-0.1,3.7-0.2,5.8-0.4c2.1-0.2,4.1-0.4,6-0.7c0.9-0.1,1.6-0.1,2.2,0.2c0.6,0.3,0.9,0.7,0.9,1.3
				c0.1,1.2-0.6,2-2.1,2.1c-0.9,0.1-1.8,0.2-2.8,0.3c-1,0.1-2,0.2-3,0.3c0.2,0.3,0.2,0.8,0.3,1.3l0.1,0.9c1.2-0.1,2.4-0.2,3.6-0.4
				c1.2-0.1,2.3-0.3,3.4-0.4c0.5-0.1,0.9-0.1,1.2,0c0.3,0.1,0.6,0.2,0.8,0.4c0.2,0.2,0.4,0.4,0.5,0.7c0.1,0.3,0.2,0.5,0.2,0.8
				c0,0.5-0.1,1-0.4,1.3c-0.3,0.3-0.8,0.5-1.5,0.6c-0.6,0.1-1.4,0.2-2.4,0.3c-1,0.1-2,0.3-3.2,0.4c-1.2,0.1-2.4,0.3-3.7,0.4
				c-1.3,0.1-2.6,0.2-3.9,0.3c-1.3,0.1-2.5,0.1-3.7,0.2C124.8,110.4,123.7,110.4,122.8,110.3z"/>
			<path fill="#494B68" d="M155.9,107.6c-0.6,0-1-0.2-1.4-0.7c-0.4-0.4-0.5-1.2-0.5-2.2c0-0.9,0-1.8,0-2.8c0-1-0.1-2-0.1-3
				s-0.1-1.9-0.2-2.7c-0.1-0.9-0.2-1.6-0.3-2.2c-0.1-0.4-0.2-0.6-0.3-0.7c-0.1-0.1-0.4-0.1-0.8-0.1c-0.5,0-1.2,0-2,0
				c-0.8,0-1.8,0.1-3,0.3c-0.9,0.1-1.5,0-2-0.3c-0.4-0.4-0.7-0.8-0.7-1.5c0-0.6,0.1-1.1,0.5-1.4c0.3-0.3,0.9-0.5,1.7-0.6
				c0.7-0.1,1.3-0.2,1.8-0.3c0.5-0.1,1.1-0.1,1.6-0.2c0.5,0,1.1-0.1,1.7-0.1c0.6,0,1.4,0,2.3,0c0.6,0,1.2,0.1,1.6,0.1
				c0.4,0.1,0.7,0.2,1,0.4c0.2,0.2,0.4,0.4,0.6,0.7c0.1,0.3,0.2,0.6,0.3,1.1c0.2,1.1,0.4,2.2,0.5,3.3c0.2,1.2,0.3,2.3,0.3,3.5
				c0.1,1.2,0.1,2.3,0.1,3.4c0,1.1,0,2.1-0.1,3c0,0.8-0.3,1.4-0.7,2S156.8,107.6,155.9,107.6z M161,90c-0.3-0.7-0.3-1.3,0-1.9
				c0.3-0.5,0.9-0.8,1.9-0.9c0.3,0,0.6,0,0.9,0.1c0.3,0.1,0.6,0.2,0.8,0.5c0.3,0.2,0.5,0.6,0.7,1c0.2,0.4,0.3,0.9,0.4,1.6l0.4,4.7
				c0.3,0,0.7,0,1-0.1c0.3,0,0.6,0,1,0c0.4,0,0.8,0.2,1.2,0.5c0.4,0.3,0.6,0.8,0.6,1.2c0,0.5-0.1,0.9-0.2,1.3
				c-0.2,0.4-0.5,0.7-1,0.9c-0.3,0.1-0.6,0.2-1,0.3c-0.4,0.1-0.7,0.1-1.1,0.2c0.1,1.2,0.2,2.5,0.2,3.7c0.1,1.2,0.1,2.2,0.1,3.1
				c0,0.9-0.1,1.6-0.5,2.2c-0.3,0.5-0.9,0.8-1.6,0.9c-0.7,0-1.3-0.2-1.7-0.6s-0.6-1.2-0.6-2.1c0-0.3,0-0.7,0-1.3
				c0-0.6-0.1-1.3-0.1-2s-0.1-1.6-0.1-2.5c-0.1-0.9-0.1-1.9-0.2-2.8s-0.1-1.9-0.2-2.8c-0.1-0.9-0.2-1.8-0.3-2.5
				c0-0.4-0.1-0.8-0.2-1.2C161.3,90.7,161.2,90.3,161,90z"/>
			<path fill="#494B68" d="M181,105.9c-0.6,0-1-0.2-1.4-0.7c-0.4-0.4-0.5-1.2-0.5-2.2c0-0.9,0-1.8,0-2.8c0-1,0-1.9-0.1-2.9
				c0-1-0.1-1.9-0.1-2.7c0-0.9-0.1-1.6-0.2-2.3c0-0.4-0.1-0.6-0.3-0.7s-0.4-0.1-0.8-0.1c-0.5,0-1.2,0-2.2,0.1c-0.9,0-2,0.2-3.2,0.3
				c-0.9,0.1-1.5,0-2-0.3s-0.7-0.8-0.7-1.5s0.1-1.1,0.5-1.4c0.3-0.3,0.9-0.5,1.7-0.6c0.7-0.1,1.4-0.2,1.9-0.3
				c0.6-0.1,1.2-0.1,1.8-0.2c0.6,0,1.2-0.1,1.9-0.1c0.7,0,1.5,0,2.4,0c0.6,0,1.2,0.1,1.6,0.1c0.4,0.1,0.7,0.2,1,0.4s0.4,0.4,0.5,0.7
				c0.1,0.3,0.2,0.7,0.2,1.1c0.1,1.1,0.2,2.2,0.3,3.4s0.2,2.3,0.2,3.5c0,1.2,0.1,2.3,0.1,3.4c0,1.1,0,2.1-0.1,3c0,0.8-0.3,1.4-0.6,2
				C182.5,105.7,181.8,105.9,181,105.9z M187.4,88c-0.2-1.6,0.4-2.4,1.7-2.5c0.3,0,0.6,0,0.9,0.1s0.6,0.2,0.8,0.5
				c0.2,0.2,0.4,0.6,0.6,1c0.2,0.4,0.3,0.9,0.4,1.6c0.1,0.5,0.1,1.2,0.2,2c0.1,0.8,0.2,1.7,0.2,2.6c0.1,0.9,0.2,1.9,0.2,3
				c0.1,1,0.1,2,0.2,3c0.1,1,0.1,2,0.1,2.9c0,0.9,0.1,1.7,0.1,2.4c0,0.9-0.1,1.6-0.4,2.2s-0.8,0.8-1.5,0.9c-0.7,0-1.3-0.2-1.7-0.6
				c-0.4-0.5-0.6-1.2-0.6-2.1c0-1,0-2.1-0.1-3.3c-0.1-1.2-0.1-2.4-0.2-3.6s-0.2-2.3-0.3-3.4c-0.1-1.1-0.2-2-0.3-2.8
				c-0.1-0.8-0.2-1.5-0.3-2.1C187.5,88.9,187.5,88.4,187.4,88z"/>
		</g>
	</g>
</g>
<g id="_x30_._Edit">
</g>
</svg>
