<?xml version="1.0" encoding="utf-8"?>
<!-- Generator: Adobe Illustrator 27.3.0, SVG Export Plug-In . SVG Version: 6.00 Build 0)  -->
<svg version="1.1" xmlns="http://www.w3.org/2000/svg" xmlns:xlink="http://www.w3.org/1999/xlink" x="0px" y="0px"
width="current" height="current"
	 viewBox="0 0 427.1 283.3" enable-background="new 0 0 427.1 283.3" xml:space="preserve">
<g id="_x32_._kakaotalk_thumbnail">
</g>
<g id="_x31_._Main_Page">
	<g id="start_00000165951191454222949520000012371677422885610144_">
		<g id="Bag_00000123434512073107847430000013081416547718904714_">
			<path class="bagbody" fill="#AAC6DC" d="M0,76.3V247c0,20.1,21.1,36.3,47.1,36.3h333c26,0,47.1-16.3,47.1-36.3V76.3c0-20.1-21.1-36.3-47.1-36.3
				h-333C21.1,40,0,56.3,0,76.3z"/>
			<path fill="#181B49" d="M282.7,40V24.4C282.7,11,268.5,0,251,0h-81.9c-17.5,0-31.7,11-31.7,24.4V40H282.7z M153.9,24.4
				c0-6.5,6.8-11.7,15.2-11.7H251c8.4,0,15.2,5.3,15.2,11.7v9.2H153.9V24.4z"/>
			<g>
				<path fill="#181B49" d="M54.8,40h-7.8C21.1,40,0,56.3,0,76.3v15.4c3,0.4,6,0.7,9.1,0.7c27.3,0,49.4-17,49.4-38.1
					C58.5,49.2,57.2,44.4,54.8,40z"/>
			</g>
			<g>
				<path fill="#181B49" d="M423.5,92.4h-7.8c-26,0-47.1-16.3-47.1-36.3V40.7c3-0.4,6-0.7,9.1-0.7c27.3,0,49.4,17,49.4,38.1
					C427.1,83.1,425.8,88,423.5,92.4z"/>
			</g>
			<g>
				<path fill="#181B49" d="M372.3,283.3h7.8c26,0,47.1-16.3,47.1-36.3v-15.4c-3-0.4-6-0.7-9.1-0.7c-27.3,0-49.4,17-49.4,38.1
					C368.7,274.1,370,278.9,372.3,283.3z"/>
			</g>
			<g>
				<path fill="#181B49" d="M3.6,230.9h7.8c26,0,47.1,16.3,47.1,36.3v15.4c-3,0.4-6,0.7-9.1,0.7c-27.3,0-49.4-17-49.4-38.1
					C0,240.2,1.3,235.3,3.6,230.9z"/>
			</g>
		</g>
	</g>
</g>
<g id="_x30_._Edit">
</g>
</svg>
